<svg version="1.1" id="Capa_1" xmlns="http://www.w3.org/2000/svg" xmlns:xlink="http://www.w3.org/1999/xlink" x="0px" y="0px"
	 width="415.011px" height="99px" viewBox="0 0 415.011 99" enable-background="new 0 0 415.011 99" xml:space="preserve">
<g>
	<g>
		<path fill="#FFFFFF" d="M21.464,31.775v-12.43H36.2v12.43H21.464z M21.832,86.567V37.213h14v49.354H21.832z"/>
		<path fill="#FFFFFF" d="M73.308,86.567V59.033c0-6.629-3.13-10.031-8.471-10.031c-5.343,0-8.749,3.402-8.749,10.031v27.534h-14
			V37.213h14v6.999c3.224-4.143,7.367-7.923,14.459-7.923c10.589,0,16.761,6.999,16.761,18.331v31.947H73.308z"/>
		<path fill="#FFFFFF" d="M123.768,86.567V59.033c0-6.629-3.129-10.031-8.473-10.031c-5.34,0-8.746,3.402-8.746,10.031v27.534
			H92.551V37.213h13.998v6.999c3.223-4.143,7.367-7.923,14.457-7.923c10.59,0,16.762,6.999,16.762,18.331v31.947H123.768z"/>
		<path fill="#FFFFFF" d="M167.23,87.678c-15.287,0-26.615-11.331-26.615-25.514v-0.182c0-14.182,11.419-25.693,26.798-25.693
			c15.287,0,26.612,11.332,26.612,25.506v0.188C194.025,76.166,182.607,87.678,167.23,87.678z M180.214,61.982
			c0-7.274-5.249-13.629-12.983-13.629c-8.014,0-12.801,6.171-12.801,13.441v0.188c0,7.276,5.248,13.631,12.983,13.631
			c8.015,0,12.801-6.172,12.801-13.449V61.982z"/>
		<path fill="#FFFFFF" d="M222.199,86.938h-12.705l-19.433-49.726h14.825l11.053,33.057l11.142-33.057h14.552L222.199,86.938z"/>
		<path fill="#FFFFFF" d="M269.441,86.567v-5.336c-3.41,3.771-8.105,6.259-14.922,6.259c-9.298,0-16.939-5.344-16.939-15.099v-0.188
			c0-10.771,8.192-15.745,19.889-15.745c4.97,0,8.563,0.829,12.063,2.022v-0.822c0-5.807-3.592-9.028-10.586-9.028
			c-5.345,0-9.121,1.013-13.632,2.669l-3.502-10.681c5.438-2.395,10.778-3.958,19.155-3.958c15.286,0,22.008,7.921,22.008,21.268
			v28.64H269.441z M269.716,66.679c-2.392-1.104-5.522-1.839-8.933-1.839c-5.988,0-9.669,2.392-9.669,6.81v0.189
			c0,3.774,3.128,5.982,7.64,5.982c6.543,0,10.962-3.589,10.962-8.655V66.679z"/>
		<path fill="#FFFFFF" d="M304.341,87.401c-8.563,0-14.364-3.408-14.364-14.828v-23.39h-5.896V37.213h5.896V24.594h13.997v12.619
			h11.602v11.971h-11.602V70.27c0,3.227,1.377,4.791,4.508,4.791c2.58,0,4.885-0.642,6.906-1.752v11.237
			C312.444,86.297,309.036,87.401,304.341,87.401z"/>
		<path fill="#FFFFFF" d="M363.458,66.774h-34.346c1.373,6.353,5.797,9.666,12.057,9.666c4.703,0,8.104-1.476,11.975-5.064
			l8.008,7.094c-4.6,5.706-11.229,9.208-20.164,9.208c-14.826,0-25.781-10.409-25.781-25.514v-0.182
			c0-14.087,10.031-25.693,24.402-25.693c16.486,0,24.039,12.801,24.039,26.798v0.184C363.647,64.651,363.552,65.479,363.458,66.774
			z M339.608,47.525c-5.801,0-9.58,4.143-10.686,10.498h21.086C349.181,51.764,345.503,47.525,339.608,47.525z"/>
	</g>
	<g>
		<path fill="#FFFFFF" d="M43.472,21.43c0,7.626-6.182,13.809-13.812,13.809c-7.627,0-13.813-6.183-13.813-13.809
			c0-7.634,6.186-13.816,13.813-13.816C37.29,7.613,43.472,13.796,43.472,21.43z"/>
	</g>
	<g>
		<circle fill="#FFFFFF" cx="385.35" cy="72.756" r="13.813"/>
	</g>
</g>
</svg>
